<svg xmlns="http://www.w3.org/2000/svg" version="1.1" xmlns:xlink="http://www.w3.org/1999/xlink" xmlns:svgjs="http://svgjs.dev/svgjs" width="1440" height="560" preserveAspectRatio="none" viewBox="0 0 1440 560"><g mask="url(&quot;#SvgjsMask1000&quot;)" fill="none"><rect width="1440" height="560" x="0" y="0" fill="#0e2a47"></rect><path d="M330.01 177.21L394.97 214.71L394.97 289.71L330.01 327.21L265.06 289.71L265.06 214.71zM524.88 64.71L589.83 102.21L589.83 177.21L524.88 214.71L459.92 177.21L459.92 102.21zM459.92 177.21L524.88 214.71L524.88 289.71L459.92 327.21L394.97 289.71L394.97 214.71zM589.83 -47.79L654.78 -10.29L654.78 64.71L589.83 102.21L524.88 64.71L524.88 -10.29zM589.83 402.21L654.78 439.71L654.78 514.71L589.83 552.21L524.88 514.71L524.88 439.71zM654.78 514.71L719.74 552.21L719.74 627.21L654.78 664.71L589.83 627.21L589.83 552.21zM719.74 177.21L784.69 214.71L784.69 289.71L719.74 327.21L654.78 289.71L654.78 214.71zM719.74 402.21L784.69 439.71L784.69 514.71L719.74 552.21L654.78 514.71L654.78 439.71zM849.64 -47.79L914.6 -10.29L914.6 64.71L849.64 102.21L784.69 64.71L784.69 -10.29zM849.64 177.21L914.6 214.71L914.6 289.71L849.64 327.21L784.69 289.71L784.69 214.71zM1044.51 64.71L1109.46 102.21L1109.46 177.21L1044.51 214.71L979.55 177.21L979.55 102.21zM1174.41 289.71L1239.37 327.21L1239.37 402.21L1174.41 439.71L1109.46 402.21L1109.46 327.21zM1239.37 402.21L1304.32 439.71L1304.32 514.71L1239.37 552.21L1174.41 514.71L1174.41 439.71zM1434.23 289.71L1499.18 327.21L1499.18 402.21L1434.23 439.71L1369.28 402.21L1369.28 327.21zM1369.28 402.21L1434.23 439.71L1434.23 514.71L1369.28 552.21L1304.32 514.71L1304.32 439.71zM1434.23 514.71L1499.18 552.21L1499.18 627.21L1434.23 664.71L1369.28 627.21L1369.28 552.21z" stroke="#03305d" stroke-width="2"></path><path d="M322.51 177.21 a7.5 7.5 0 1 0 15 0 a7.5 7.5 0 1 0 -15 0zM387.47 214.71 a7.5 7.5 0 1 0 15 0 a7.5 7.5 0 1 0 -15 0zM387.47 289.71 a7.5 7.5 0 1 0 15 0 a7.5 7.5 0 1 0 -15 0zM322.51 327.21 a7.5 7.5 0 1 0 15 0 a7.5 7.5 0 1 0 -15 0zM257.56 289.71 a7.5 7.5 0 1 0 15 0 a7.5 7.5 0 1 0 -15 0zM257.56 214.71 a7.5 7.5 0 1 0 15 0 a7.5 7.5 0 1 0 -15 0zM517.38 64.71 a7.5 7.5 0 1 0 15 0 a7.5 7.5 0 1 0 -15 0zM582.33 102.21 a7.5 7.5 0 1 0 15 0 a7.5 7.5 0 1 0 -15 0zM582.33 177.21 a7.5 7.5 0 1 0 15 0 a7.5 7.5 0 1 0 -15 0zM517.38 214.71 a7.5 7.5 0 1 0 15 0 a7.5 7.5 0 1 0 -15 0zM452.42 177.21 a7.5 7.5 0 1 0 15 0 a7.5 7.5 0 1 0 -15 0zM452.42 102.21 a7.5 7.5 0 1 0 15 0 a7.5 7.5 0 1 0 -15 0zM517.38 289.71 a7.5 7.5 0 1 0 15 0 a7.5 7.5 0 1 0 -15 0zM452.42 327.21 a7.5 7.5 0 1 0 15 0 a7.5 7.5 0 1 0 -15 0zM582.33 -47.79 a7.5 7.5 0 1 0 15 0 a7.5 7.5 0 1 0 -15 0zM647.28 -10.29 a7.5 7.5 0 1 0 15 0 a7.5 7.5 0 1 0 -15 0zM647.28 64.71 a7.5 7.5 0 1 0 15 0 a7.5 7.5 0 1 0 -15 0zM517.38 -10.29 a7.5 7.5 0 1 0 15 0 a7.5 7.5 0 1 0 -15 0zM582.33 402.21 a7.5 7.5 0 1 0 15 0 a7.5 7.5 0 1 0 -15 0zM647.28 439.71 a7.5 7.5 0 1 0 15 0 a7.5 7.5 0 1 0 -15 0zM647.28 514.71 a7.5 7.5 0 1 0 15 0 a7.5 7.5 0 1 0 -15 0zM582.33 552.21 a7.5 7.5 0 1 0 15 0 a7.5 7.5 0 1 0 -15 0zM517.38 514.71 a7.5 7.5 0 1 0 15 0 a7.5 7.5 0 1 0 -15 0zM517.38 439.71 a7.5 7.5 0 1 0 15 0 a7.5 7.5 0 1 0 -15 0zM712.24 552.21 a7.5 7.5 0 1 0 15 0 a7.5 7.5 0 1 0 -15 0zM712.24 627.21 a7.5 7.5 0 1 0 15 0 a7.5 7.5 0 1 0 -15 0zM647.28 664.71 a7.5 7.5 0 1 0 15 0 a7.5 7.5 0 1 0 -15 0zM582.33 627.21 a7.5 7.5 0 1 0 15 0 a7.5 7.5 0 1 0 -15 0zM712.24 177.21 a7.5 7.5 0 1 0 15 0 a7.5 7.5 0 1 0 -15 0zM777.19 214.71 a7.5 7.5 0 1 0 15 0 a7.5 7.5 0 1 0 -15 0zM777.19 289.71 a7.5 7.5 0 1 0 15 0 a7.5 7.5 0 1 0 -15 0zM712.24 327.21 a7.5 7.5 0 1 0 15 0 a7.5 7.5 0 1 0 -15 0zM647.28 289.71 a7.5 7.5 0 1 0 15 0 a7.5 7.5 0 1 0 -15 0zM647.28 214.71 a7.5 7.5 0 1 0 15 0 a7.5 7.5 0 1 0 -15 0zM712.24 402.21 a7.5 7.5 0 1 0 15 0 a7.5 7.5 0 1 0 -15 0zM777.19 439.71 a7.5 7.5 0 1 0 15 0 a7.5 7.5 0 1 0 -15 0zM777.19 514.71 a7.5 7.5 0 1 0 15 0 a7.5 7.5 0 1 0 -15 0zM842.14 -47.79 a7.5 7.5 0 1 0 15 0 a7.5 7.5 0 1 0 -15 0zM907.1 -10.29 a7.5 7.5 0 1 0 15 0 a7.5 7.5 0 1 0 -15 0zM907.1 64.71 a7.5 7.5 0 1 0 15 0 a7.5 7.5 0 1 0 -15 0zM842.14 102.21 a7.5 7.5 0 1 0 15 0 a7.5 7.5 0 1 0 -15 0zM777.19 64.71 a7.5 7.5 0 1 0 15 0 a7.5 7.5 0 1 0 -15 0zM777.19 -10.29 a7.5 7.5 0 1 0 15 0 a7.5 7.5 0 1 0 -15 0zM842.14 177.21 a7.5 7.5 0 1 0 15 0 a7.5 7.5 0 1 0 -15 0zM907.1 214.71 a7.5 7.5 0 1 0 15 0 a7.5 7.5 0 1 0 -15 0zM907.1 289.71 a7.5 7.5 0 1 0 15 0 a7.5 7.5 0 1 0 -15 0zM842.14 327.21 a7.5 7.5 0 1 0 15 0 a7.5 7.5 0 1 0 -15 0zM1037.01 64.71 a7.5 7.5 0 1 0 15 0 a7.5 7.5 0 1 0 -15 0zM1101.96 102.21 a7.5 7.5 0 1 0 15 0 a7.5 7.5 0 1 0 -15 0zM1101.96 177.21 a7.5 7.5 0 1 0 15 0 a7.5 7.5 0 1 0 -15 0zM1037.01 214.71 a7.5 7.5 0 1 0 15 0 a7.5 7.5 0 1 0 -15 0zM972.05 177.21 a7.5 7.5 0 1 0 15 0 a7.5 7.5 0 1 0 -15 0zM972.05 102.21 a7.5 7.5 0 1 0 15 0 a7.5 7.5 0 1 0 -15 0zM1166.91 289.71 a7.5 7.5 0 1 0 15 0 a7.5 7.5 0 1 0 -15 0zM1231.87 327.21 a7.5 7.5 0 1 0 15 0 a7.5 7.5 0 1 0 -15 0zM1231.87 402.21 a7.5 7.5 0 1 0 15 0 a7.5 7.5 0 1 0 -15 0zM1166.91 439.71 a7.5 7.5 0 1 0 15 0 a7.5 7.5 0 1 0 -15 0zM1101.96 402.21 a7.5 7.5 0 1 0 15 0 a7.5 7.5 0 1 0 -15 0zM1101.96 327.21 a7.5 7.5 0 1 0 15 0 a7.5 7.5 0 1 0 -15 0zM1296.82 439.71 a7.5 7.5 0 1 0 15 0 a7.5 7.5 0 1 0 -15 0zM1296.82 514.71 a7.5 7.5 0 1 0 15 0 a7.5 7.5 0 1 0 -15 0zM1231.87 552.21 a7.5 7.5 0 1 0 15 0 a7.5 7.5 0 1 0 -15 0zM1166.91 514.71 a7.5 7.5 0 1 0 15 0 a7.5 7.5 0 1 0 -15 0zM1426.73 289.71 a7.5 7.5 0 1 0 15 0 a7.5 7.5 0 1 0 -15 0zM1491.68 327.21 a7.5 7.5 0 1 0 15 0 a7.5 7.5 0 1 0 -15 0zM1491.68 402.21 a7.5 7.5 0 1 0 15 0 a7.5 7.5 0 1 0 -15 0zM1426.73 439.71 a7.5 7.5 0 1 0 15 0 a7.5 7.5 0 1 0 -15 0zM1361.78 402.21 a7.5 7.5 0 1 0 15 0 a7.5 7.5 0 1 0 -15 0zM1361.78 327.21 a7.5 7.5 0 1 0 15 0 a7.5 7.5 0 1 0 -15 0zM1426.73 514.71 a7.5 7.5 0 1 0 15 0 a7.5 7.5 0 1 0 -15 0zM1361.78 552.21 a7.5 7.5 0 1 0 15 0 a7.5 7.5 0 1 0 -15 0zM1491.68 552.21 a7.5 7.5 0 1 0 15 0 a7.5 7.5 0 1 0 -15 0zM1491.68 627.21 a7.5 7.5 0 1 0 15 0 a7.5 7.5 0 1 0 -15 0zM1426.73 664.71 a7.5 7.5 0 1 0 15 0 a7.5 7.5 0 1 0 -15 0zM1361.78 627.21 a7.5 7.5 0 1 0 15 0 a7.5 7.5 0 1 0 -15 0z" fill="#03305d"></path><path d="M34.72 298.11L78.02 323.11L78.02 373.11L34.72 398.11L-8.58 373.11L-8.58 323.11zM121.33 298.11L164.63 323.11L164.63 373.11L121.33 398.11L78.02 373.11L78.02 323.11zM251.23 73.11L294.53 98.11L294.53 148.11L251.23 173.11L207.93 148.11L207.93 98.11zM294.53 148.11L337.84 173.11L337.84 223.11L294.53 248.11L251.23 223.11L251.23 173.11zM337.84 373.11L381.14 398.11L381.14 448.11L337.84 473.11L294.53 448.11L294.53 398.11zM424.44 223.11L467.75 248.11L467.75 298.11L424.44 323.11L381.14 298.11L381.14 248.11zM467.75 -1.89L511.05 23.11L511.05 73.11L467.75 98.11L424.44 73.11L424.44 23.11zM467.75 448.11L511.05 473.11L511.05 523.11L467.75 548.11L424.44 523.11L424.44 473.11zM554.35 -1.89L597.65 23.11L597.65 73.11L554.35 98.11L511.05 73.11L511.05 23.11zM684.26 73.11L727.56 98.11L727.56 148.11L684.26 173.11L640.96 148.11L640.96 98.11zM640.96 298.11L684.26 323.11L684.26 373.11L640.96 398.11L597.65 373.11L597.65 323.11zM770.86 223.11L814.17 248.11L814.17 298.11L770.86 323.11L727.56 298.11L727.56 248.11zM770.86 373.11L814.17 398.11L814.17 448.11L770.86 473.11L727.56 448.11L727.56 398.11zM814.17 -1.89L857.47 23.11L857.47 73.11L814.17 98.11L770.86 73.11L770.86 23.11zM944.07 223.11L987.38 248.11L987.38 298.11L944.07 323.11L900.77 298.11L900.77 248.11zM1030.68 73.11L1073.98 98.11L1073.98 148.11L1030.68 173.11L987.38 148.11L987.38 98.11zM1030.68 373.11L1073.98 398.11L1073.98 448.11L1030.68 473.11L987.38 448.11L987.38 398.11zM1073.98 148.11L1117.28 173.11L1117.28 223.11L1073.98 248.11L1030.68 223.11L1030.68 173.11zM1117.28 223.11L1160.59 248.11L1160.59 298.11L1117.28 323.11L1073.98 298.11L1073.98 248.11zM1073.98 298.11L1117.28 323.11L1117.28 373.11L1073.98 398.11L1030.68 373.11L1030.68 323.11zM1117.28 523.11L1160.59 548.11L1160.59 598.11L1117.28 623.11L1073.98 598.11L1073.98 548.11zM1203.89 373.11L1247.19 398.11L1247.19 448.11L1203.89 473.11L1160.59 448.11L1160.59 398.11zM1290.49 223.11L1333.8 248.11L1333.8 298.11L1290.49 323.11L1247.19 298.11L1247.19 248.11zM1290.49 373.11L1333.8 398.11L1333.8 448.11L1290.49 473.11L1247.19 448.11L1247.19 398.11zM1290.49 523.11L1333.8 548.11L1333.8 598.11L1290.49 623.11L1247.19 598.11L1247.19 548.11zM1377.1 73.11L1420.4 98.11L1420.4 148.11L1377.1 173.11L1333.8 148.11L1333.8 98.11zM1333.8 148.11L1377.1 173.11L1377.1 223.11L1333.8 248.11L1290.49 223.11L1290.49 173.11zM1377.1 223.11L1420.4 248.11L1420.4 298.11L1377.1 323.11L1333.8 298.11L1333.8 248.11zM1420.4 148.11L1463.7 173.11L1463.7 223.11L1420.4 248.11L1377.1 223.11L1377.1 173.11z" stroke="rgba(6, 80, 156, 0.93)" stroke-width="2"></path></g><defs><mask id="SvgjsMask1000"><rect width="1440" height="560" fill="#ffffff"></rect></mask></defs></svg>